<svg xmlns="http://www.w3.org/2000/svg" xmlns:xlink="http://www.w3.org/1999/xlink" viewBox="0 0 1920 1080"><defs><style>.a{fill:#368dce;}.b{fill:#fa331e;stroke-width:5px;}.b,.c{stroke:#000;stroke-miterlimit:10;}.c{fill:#039;stroke-width:3px;}</style></defs><rect class="a" x="-364.51" y="-146.52" width="2571" height="1299"/><path d="M2206-146V1152H-364V-146H2206m1-1H-365V1153H2207V-147Z"/><path class="b" d="M902.43,396.06c1.23-6.75,5.73-10.23,12.48-10.23,6.74.21,13.7.41,20.45,1.64,7.56,1.23,11,5.73,11.45,13.91,1.63,34.76-.21,66.67-1.23,98.36a40.75,40.75,0,0,0,.41,7.16c1.23,7,4.7,9.41,11,8.39a61.54,61.54,0,0,1,8.59-1c7,0,11,3.28,12.48,10.43a49.32,49.32,0,0,1,1,11c0,6.54-3.27,10.84-9.2,12.27a17.32,17.32,0,0,1-5.52.82c-13.09.41-26.59,1.84-39.88,1-15.55-1-20.86-8.39-21.07-25.16,0-36.4-1.84-71.57-2.45-108A99.69,99.69,0,0,1,902.43,396.06Z"/><path class="b" d="M1030.45,432.05c13.7-2.25,31.49-.81,42.54,7.16,6.54,4.7,10.84,11.86,11,21.68.21,8.18,0,16.36-.2,24.74,0,9-6.14,17.59-16.16,17.59H1044c-2.25,0-4.91.41-4.91,3.27,0,3.07,1.43,5.12,4.7,5.12,6.55.2,13.3,0,20.25,0,3.68,0,7.57,0,11.66.2,4.09.82,6.75,3.48,6.75,6.95a81.57,81.57,0,0,1-.82,14.32c-1.43,6.34-6.14,10.63-12.68,12.88-17.39,5.73-34.36,5.93-51.74-1.43C1005.09,539.21,1000,529.6,996.5,518c-6.75-22.7-1.63-54,1.64-62.79C1002.64,441.05,1014.29,432.87,1030.45,432.05Zm9.41,44.59h16.77C1058.06,455,1039.24,460.07,1039.86,476.64Z"/><path class="b" d="M1123.71,527.15c-7.57-18.82-13.5-38.24-19.23-57.26-3.27-11.05-9-33.34,6.14-36.81a32,32,0,0,1,7.77-.82c11-.82,23.11-3.48,29.24,7.36a35.16,35.16,0,0,1,3.68,16.16c.82,11.65,1.84,23.31,3.48,34.35,4.7,25.77,14.52,17,19-1.84,3.27-12.27,7-29.45,9.61-42.13,1.64-7.56,5.11-9.81,10.64-10.22,19.42-1,29.85.61,29,12.47-2,28-9,52.77-22.09,75.26-8,14.32-19.22,26.38-36,25.77a28.92,28.92,0,0,0-4.3,0C1141.7,551.89,1129.84,542.49,1123.71,527.15Z"/><path class="b" d="M1275,432.05c13.7-2.25,31.5-.81,42.54,7.16,6.54,4.7,10.84,11.86,11,21.68.21,8.18,0,16.36-.2,24.74,0,9-6.14,17.59-16.16,17.59h-23.72c-2.25,0-4.91.41-4.91,3.27,0,3.07,1.43,5.12,4.71,5.12,6.54.2,13.29,0,20.24,0,3.68,0,7.57,0,11.66.2,4.09.82,6.75,3.48,6.75,6.95a81.57,81.57,0,0,1-.82,14.32c-1.43,6.34-6.14,10.63-12.68,12.88-17.38,5.73-34.36,5.93-51.74-1.43-12.07-5.32-17.18-14.93-20.66-26.58-6.74-22.7-1.63-54,1.64-62.79C1247.23,441.05,1258.89,432.87,1275,432.05Zm9.41,44.59h16.77C1302.65,455,1283.84,460.07,1284.45,476.64Z"/><path class="b" d="M1348.46,401.58c1.84-8.18,7.36-13.09,16.77-13.29a58.71,58.71,0,0,1,16.77,1.43c9.2,1.84,14.52,7.16,14.52,15.95-1.23,33.75-2.86,66.06-5.32,98.37-1,14.11,4.5,13.29,15.34,14.93,9.41,1.43,11.25,14.93,7.57,24.13-4.5,10.43-19.43,11.66-30.27,11.45-31.7-.41-37.22-21.68-38.65-48.87-1.43-28-.21-56.24.61-82.83A126.74,126.74,0,0,1,1348.46,401.58Z"/><path class="b" d="M1571.17,506.9c8,1,12.68,5.93,12.88,13.5a67.61,67.61,0,0,1-1.43,18.2c-1.84,8.18-5.52,10.23-14.11,10a218,218,0,0,0-32.93,2.25c-9.2,1.23-18.2.82-26.17-5.11-12.07-12.89-.21-40.49,10.84-50.31,11.65-11.25,22.9-23.31,30.67-37.83,7.57-13.91-2.66-22.09-12.27-8-1.63,2.45-3.07,5.11-4.91,8-4.29,6.54-11.86,8-18.61,3.47a74.21,74.21,0,0,1-12.47-10,10.73,10.73,0,0,1-2.86-6.75c-.62-6.13,1.22-12.68,4.9-18.61,23.52-38,87.33-24.54,80.17,18-2.45,15.54-10,34-19.22,46.42-5.73,8.18-10.23,15.55-4.91,16.36C1564.42,506.7,1567.9,506.49,1571.17,506.9Z"/><path class="c" d="M752.35,667.68c2.47-3.64,11-4.7,15-3.64,4.82,1.05,6.23,3.17,6.35,8.46a11.45,11.45,0,0,1-.83,3.88c-2.35,7.06-10,8.35-16,6A9.5,9.5,0,0,1,752.35,667.68Z"/><path class="c" d="M784.21,667.68c2.47-3.64,11.06-4.7,15.06-3.64,4.82,1.05,6.23,3.17,6.35,8.46a11.45,11.45,0,0,1-.83,3.88c-2.35,7.06-10,8.35-16,6A9.51,9.51,0,0,1,784.21,667.68Z"/><path class="c" d="M816.08,667.68c2.47-3.64,11-4.7,15-3.64,4.82,1.05,6.23,3.17,6.35,8.46a11.43,11.43,0,0,1-.82,3.88c-2.35,7.06-10,8.35-16,6A9.5,9.5,0,0,1,816.08,667.68Z"/><path class="c" d="M869.11,681c-.94,3.53-3.05,4-6.46,4.7a33.25,33.25,0,0,1-9.06.47c-7.29-.7-6.58-9-6.35-14.34.24-4.83.83-9.53,1.06-14.35.47-4.23.59-8.58.94-13.17.24-4.12,2.12-5.64,6.35-5.53,1.88.12,3.53,0,5.29.12,5.65.12,8.7,2.59,8.94,8.23.71,8.94.24,18-.12,26.7A48.26,48.26,0,0,1,869.11,681Zm1.77-63.62c3.06,5.65,2.12,14.7-3.65,16.7a22.11,22.11,0,0,1-12.93.47c-3.18-.71-4.82-3.06-5.53-6.11-.12-1.42,0-2.83-.12-3.41C845.6,611.94,865.94,608.53,870.88,617.35Z"/><path class="c" d="M947.55,623.7c9.87,9.64,10.11,41.28,7.17,53.62-1.53,6-7.17,8-14,7.88-6.59-.12-12.35-2.59-11.17-9.41.35-4.46.94-13.17.94-20.22,0-20.46-17.41-14.82-20.7,1.88-.7,4.59-1.06,9.29-1.65,14.11-.35,1.65-.35,3.41-.82,4.94a9.16,9.16,0,0,1-9.41,7.88c-6.7,0-14-.71-14.81-7.53-.94-17.17,1.41-35.63,2.7-51.15a18.39,18.39,0,0,1,1.77-6.11c2.82-6.12,17.52-5.41,19.63-.71a24.07,24.07,0,0,1,1.77,4.59,40.24,40.24,0,0,1,.94,6.7C921.09,622.17,935.2,611.83,947.55,623.7Z"/><path class="c" d="M1069.61,631.82a38.38,38.38,0,0,1-3.18,25.28c-4.23,8.46-11.64,12.93-21.28,13.76-2.35.23-5.17,0-8.11,0-.59,6-.12,12-.24,17.87-.12,7-2.7,10-9.41,11.64s-18.46,2.23-18.22-8.58c.12-6.47.12-13.29.12-20,0-5.41.23-11.17.23-16.58,0-9.18-.23-18.23-.23-27.28,0-2.36-.12-4.59-.24-6.94a8.05,8.05,0,0,1,4.47-8.23,23,23,0,0,1,10.7-2.71c3.53-.23,6.11,1.41,7.52,4.82.47.94.83,1.88,1.18,2.59C1047.15,610.89,1066.32,615.82,1069.61,631.82Zm-18,6.11c-1.3-4.12-6.47-6.23-10-3.76a2.65,2.65,0,0,0-1.06,2.11c-.11,3.88.12,8.12.12,12.7C1047.5,649.45,1054.44,647.1,1051.62,637.93Z"/><path class="c" d="M1108.18,627.7c5.17-3.17,10.35-5.17,16.34-4.82,5.06.12,7.65,2.59,7.41,7.52-.12,4.47-.47,8.71-.94,13.17-.59,3.3-2.12,4.47-5.29,3.89-19-3.65-22,17.16-20.58,31,.82,8.23-11,8.47-18.11,7.76-5.17-1.06-7.17-3.53-7.17-8.82,0-15.64-.24-30.34-1.06-46.09a59,59,0,0,1,.12-8c.47-9.17,10.93-9.29,18.34-7.64,4.82,1.17,6.47,5.88,7.06,10.34.23,1.3.35,2.47.59,4.12C1106.18,629.23,1107.12,628.52,1108.18,627.7Z"/><path class="c" d="M1161.09,617.24c11.29-.12,24.58-.24,30.11,8.46,6,9.53,7,27.28,2,40.57-4.35,11.17-9.88,15.29-20.82,16.7-15.52,2-27.75-4-29.51-17.29-1.77-13.52-.94-28.45,3.29-39.27C1149.22,620.17,1154.51,617.35,1161.09,617.24Zm3.3,30.45c0,5.06.58,11.41,4.47,12.23,8.81,2.12,8.46-14.82,7.29-18.82-1.06-3.17-2.71-5.52-5.53-5.76C1164.39,635.11,1164.39,643.81,1164.39,647.69Z"/><path class="c" d="M1214.36,681.79c-12.34-5.88-10-27-7.52-37.27,3.41-14.59,20.58-19.52,34-16v-3c.24-8.94.71-18,1.06-26.93.12-2.82,1.18-5.18,3.88-6.12,7.64-2.47,21.87-4.23,23,6.47.23,5.18.59,10.47,0,15.64-1.18,15.52-1.53,31-1.53,46.57,0,5.52-.35,11-.82,16.69-.47,4.71-3.41,7.53-7.76,8.59-5.06,1.29-10.59,2-13.17-2.83-1-2-1.42-4-2.47-6.35C1234.71,683.91,1224.36,686.73,1214.36,681.79Zm27.75-18.7c-.23-4.82-.47-9.76-.82-14.93C1224.12,647.34,1225.53,668.27,1242.11,663.09Z"/><path class="c" d="M1322,678.38c-7.41,5.41-16.11,6.59-25,5.06-25.51-4.35-17.05-52-15.75-59.38.82-3.42,3.17-5.06,6.7-5.18,2.82,0,5.64-.12,8.7-.12,5.17.12,7.88,2,8.82,6.35,2,8.47-1.29,19.17-.94,27.75.12,4,2.11,6,6.23,7.06,8.23,1.41,12.46-6.35,12.46-12.46s-.11-11.88-1.05-17.76c-.83-7.53,2-10.82,11.4-11.76a36.7,36.7,0,0,1,7.17.12c7.53.82,9.53,8,9.53,13.4,0,6.35-.59,13.06-1.18,19.76a49.21,49.21,0,0,0,1.89,19.28,53.33,53.33,0,0,1,1.17,5.41,5.17,5.17,0,0,1-4.23,6.23,48.42,48.42,0,0,1-10.82,2c-5.76,0-8.47-4.58-11.41-8C1324.19,677.09,1323,677.79,1322,678.38Z"/><path class="c" d="M1403.45,611.94c2,.24,4.12.59,6.11.94a19.24,19.24,0,0,1,2.36.71c6.11,2.35,5.52,12.7,2.11,18.11-3.41,5.64-10.82,1.76-16.81,2.59-8.35,1.17-15.64,6.11-16.35,14.93-1.17,11.76,13.06,12.46,21.87,12,6.47-.58,9.18,1.53,10.35,4.59,2.12,6,2.59,15.4-4.47,18-7.4,2.47-23.4,1.88-30.8.12-18.58-4.71-19-32.57-16.35-46.45C1365.47,618.88,1385.22,610.3,1403.45,611.94Z"/><path class="c" d="M1473.65,625.47a29.23,29.23,0,0,1,5.41,1.76c5.29,2.7,5.53,14.93.24,17.87a14.25,14.25,0,0,1-5.53,1.53c-3.06.24-6.12,0-9.41,0a32.58,32.58,0,0,0,1.06,13.52c.94,3.06,2.59,4.12,6,3.89a32.43,32.43,0,0,0,4.11-1.18c4-1.06,7.06-.12,8.94,3.64,3.29,6.71,2.47,13.06-4.7,16.7a36.8,36.8,0,0,1-25.64,2.82c-6.23-1.64-10.11-5.88-11.76-12.22a101.62,101.62,0,0,1-2.35-23.88c.12-1,0-2.35,0-3.64-2.94-.71-5.64-1.18-8.23-2-4.7-1.18-6.82-3.76-7.17-8.11a25,25,0,0,1,.12-6c.7-5.06,3.29-7.06,8.34-6.94a25.78,25.78,0,0,1,3.41.47c1.77.12,3.06.36,5.18.47.23-2.7.7-5.29.82-7.88.47-4.46.82-9,1.53-13.4.94-5.53,3.53-8.23,9.41-8.94a29.06,29.06,0,0,1,4.58-.23c5.88,0,9.64,2.82,10,8.58a103.4,103.4,0,0,1-.24,13.52,82.7,82.7,0,0,1-1.29,8.71C1469,624.88,1471.3,625,1473.65,625.47Z"/><path class="c" d="M1518.1,681c-.94,3.53-3,4-6.46,4.7a33.25,33.25,0,0,1-9.06.47c-7.29-.7-6.58-9-6.35-14.34.24-4.83.82-9.53,1.06-14.35.47-4.23.59-8.58.94-13.17.24-4.12,2.12-5.64,6.35-5.53,1.88.12,3.53,0,5.29.12,5.65.12,8.7,2.59,8.94,8.23.7,8.94.23,18-.12,26.7A48.26,48.26,0,0,1,1518.1,681Zm1.77-63.62c3.05,5.65,2.11,14.7-3.65,16.7a22.11,22.11,0,0,1-12.93.47c-3.18-.71-4.82-3.06-5.53-6.11-.12-1.42,0-2.83-.12-3.41C1494.59,611.94,1514.93,608.53,1519.87,617.35Z"/><path class="c" d="M1550.56,617.24c11.29-.12,24.57-.24,30.1,8.46,6,9.53,7.06,27.28,2,40.57-4.35,11.17-9.88,15.29-20.81,16.7-15.52,2-27.75-4-29.52-17.29-1.76-13.52-.94-28.45,3.29-39.27C1538.68,620.17,1544,617.35,1550.56,617.24Zm3.29,30.45c0,5.06.59,11.41,4.47,12.23,8.82,2.12,8.47-14.82,7.29-18.82-1.06-3.17-2.7-5.52-5.53-5.76C1553.85,635.11,1553.85,643.81,1553.85,647.69Z"/><path class="c" d="M1660.74,623.7c9.88,9.64,10.11,41.28,7.17,53.62-1.53,6-7.17,8-14,7.88-6.58-.12-12.35-2.59-11.17-9.41.35-4.46.94-13.17.94-20.22,0-20.46-17.4-14.82-20.7,1.88-.7,4.59-1,9.29-1.64,14.11-.35,1.65-.35,3.41-.82,4.94a9.17,9.17,0,0,1-9.41,7.88c-6.7,0-14-.71-14.82-7.53-.94-17.17,1.41-35.63,2.71-51.15a18.14,18.14,0,0,1,1.76-6.11c2.82-6.12,17.52-5.41,19.64-.71a24.7,24.7,0,0,1,1.76,4.59,39.21,39.21,0,0,1,.94,6.7C1634.28,622.17,1648.39,611.83,1660.74,623.7Z"/><path class="c" d="M1692.61,687a11.61,11.61,0,0,1-4,.58c-5.76-.23-8.46-3.88-7.29-9.4a2.29,2.29,0,0,0,.12-.83c1.29-4.58,2.7-5.76,7.52-5.76C1697.31,670.27,1701,682.14,1692.61,687Zm-2.7-22.58c-8.71-.71-8.82-8.82-8.82-15.52.23-10.23.82-20.46.94-30.69.35-8.71.11-17.41.11-26.11-.11-2.7.95-4.7,3.3-5.76,3-1.53,6.35-2.71,9.76-2.47,4.46.47,7,2.35,7.76,6.82,2.94,20.11.82,50.92-5.18,68.79C1696.37,663.33,1693.9,664.86,1689.91,664.39Z"/><image width="810" height="518" transform="matrix(-0.41, 0.05, 0.05, 0.41, 1853.01, 673.55)" xlink:href="banana1-01.png"/></svg>