<svg xmlns="http://www.w3.org/2000/svg" viewBox="0 0 240.21 241.17"><defs><style>.a{fill:#98bbee;stroke:#000;stroke-miterlimit:10;stroke-width:4px;}</style></defs><path class="a" d="M8.05,93.12a32.84,32.84,0,0,0-1.9-3.8c-9.08-14.57,5.7-28.51,13.73-39.07,4.22-5.07,9.29-8,15.84-7.18a24.75,24.75,0,0,0,8-.42C53.25,41.59,63,49,62.54,61.23c-.64,12.46-.42,24.71-.64,37-.42,24.08,1.06,54.07.43,78.78-.64,11.4-5.49,17.74-17.53,19.85a94.78,94.78,0,0,1-15.63.42c-12.46-1.05-12.88-10.77-11.62-21.54,3.17-24.07,6.13-47.52,4.23-69.9C13.75,105.16,10.16,100.09,8.05,93.12Z"/><path class="a" d="M82,165.14c4.44-6.54,19.86-8.45,27-6.54,8.66,1.9,11.19,5.7,11.4,15.2a20.5,20.5,0,0,1-1.48,7c-4.22,12.67-18,15-28.72,10.77A17.07,17.07,0,0,1,82,165.14Z"/><path class="a" d="M174.26,91.43c12.25.43,24.71,3.59,34,10.56,29.57,22.18,21.33,83.22-11,95.46-12.25,4.44-27.46,5.29-42.45,3-11-1.9-17.11-10.14-17.53-21.54,0-4,0-8.66.21-12.88.63-8.87,3.8-12.25,12.25-13.1,3.17,0,5.7.21,8.45.43,3.16.21,6.54.84,9.71.84,16.05-.63,19.22-27.46,3-28.09-4.23-.21-8.45-1.06-13.1-1.48-10.77-1.26-16.47-5.91-17.53-17.32-1.05-14.15-1.69-28.51-1.47-42.87,0-11,7-18,18.37-20.27A104.28,104.28,0,0,1,169,42.44c13.3-.21,27.45-.64,40.76-.64,11.82,0,16.47,5.07,17.32,16.9a46.19,46.19,0,0,1,.21,5.49c-.85,12.88-3,18.16-20.28,18.8-11.82.63-22.17-.43-32.73-.43Z"/></svg>