<svg xmlns="http://www.w3.org/2000/svg" viewBox="0 0 240.21 241.17"><defs><style>.a{fill:#98bbee;stroke:#000;stroke-miterlimit:10;stroke-width:4px;}</style></defs><path class="a" d="M49.32,102.13a21.6,21.6,0,0,0-1.27-2.55c-6.1-9.79,3.83-19.15,9.22-26.24,2.83-3.41,6.24-5.39,10.64-4.83a16.22,16.22,0,0,0,5.39-.28c6.38-.71,12.9,4.26,12.62,12.48-.43,8.37-.28,16.6-.43,24.83-.28,16.17.71,36.31.29,52.9-.43,7.66-3.69,11.92-11.77,13.34a65,65,0,0,1-10.5.28c-8.37-.71-8.65-7.23-7.8-14.47,2.12-16.17,4.11-31.91,2.83-46.95C53.15,110.22,50.74,106.81,49.32,102.13Z"/><path class="a" d="M99,150.5c3-4.4,13.33-5.67,18.15-4.4,5.82,1.28,7.52,3.83,7.66,10.22a13.78,13.78,0,0,1-1,4.68c-2.84,8.51-12.06,10.07-19.29,7.23A11.46,11.46,0,0,1,99,150.5Z"/><path class="a" d="M161,101c8.23.28,16.6,2.41,22.84,7.09C203.65,123,198.12,164,176.41,172.2c-8.22,3-18.44,3.55-28.51,2-7.37-1.28-11.49-6.81-11.77-14.47,0-2.7,0-5.82.14-8.65.43-6,2.55-8.23,8.23-8.8,2.13,0,3.83.15,5.67.29,2.13.14,4.4.56,6.53.56,10.78-.42,12.91-18.44,2-18.86-2.83-.14-5.67-.71-8.79-1-7.24-.86-11.07-4-11.77-11.64-.71-9.5-1.14-19.14-1-28.79,0-7.38,4.68-12.06,12.34-13.62a72.44,72.44,0,0,1,7.95-1.13c8.93-.14,18.44-.43,27.37-.43,7.95,0,11.07,3.41,11.63,11.35a29.23,29.23,0,0,1,.15,3.69c-.57,8.65-2,12.2-13.62,12.62C175,95.75,168,95,161,95Z"/></svg>