<svg xmlns="http://www.w3.org/2000/svg" viewBox="0 0 240.21 241.17"><defs><style>.a{fill:#368dce;stroke:#000;stroke-linecap:round;stroke-linejoin:round;stroke-width:4px;}</style></defs><path class="a" d="M85.78,87.39c-4.46.37-8-1.11-9.11-5.39a84.42,84.42,0,0,1-3.34-14.5c-.75-5.39,2.41-9.85,8.36-11,5.76-1.11,11.9-1.3,17.66-1.86,16.73-1.67,34-3.16,48.33,2.42,10.79,4.28,13.2,14.13,11,25.65-3.72,16.18-8,28.63-12.08,41.64,2.6.19,4.27.19,6,.19,3.16.19,5,1.67,5.2,4.28a36.19,36.19,0,0,1-.18,11c-.37,4.09-3.16,6.32-7.63,7.07A110.17,110.17,0,0,0,138,148.74c-2.05,6.87-4.46,13.75-6.32,20.63-1.12,4.28-1.68,8-3,12.08-2.23,8.37-8.18,12.64-17.1,12.46a149.57,149.57,0,0,1-16.36-2.79c-5.76-1.67-8.55-5.76-7.43-11.9a103.32,103.32,0,0,1,4.64-12.82c1.86-5.77,4.65-11.34,6.88-17.48-3.35,0-5.58.19-8.18,0-5.58,0-8.92-3-9.67-8.36-.55-9.86-.18-15.06,13.2-14.69a94.79,94.79,0,0,0,10.41-.74c2,0,3.35-.56,4.09-3.16,3-8.93,6.14-17.11,9.11-25.84C125,82,113.67,85,105.3,85.53,98.79,85.72,92.29,86.65,85.78,87.39Z"/></svg>