<svg xmlns="http://www.w3.org/2000/svg" viewBox="0 0 240.21 241.17"><defs><style>.a{fill:#368dce;stroke:#000;stroke-linecap:round;stroke-linejoin:round;stroke-width:4px;}</style></defs><path class="a" d="M74.46,59.69c-7.52.63-13.47-1.88-15.35-9.08a144.92,144.92,0,0,1-5.64-24.43c-1.25-9.09,4.07-16.6,14.1-18.48,9.71-1.88,20-2.2,29.75-3.14,28.19-2.81,57.32-5.32,81.44,4.08,18.17,7.2,22.24,23.8,18.48,43.22C191,79.11,183.77,100.1,176.88,122c4.39.31,7.21.31,10,.31,5.33.32,8.46,2.82,8.77,7.21.63,6,.94,12.84-.31,18.48-.62,6.89-5.32,10.65-12.84,11.9a188.7,188.7,0,0,0-20.05,3.13c-3.44,11.59-7.51,23.18-10.65,34.77-1.88,7.2-2.82,13.47-5,20.36-3.76,14.09-13.78,21.3-28.81,21a250.3,250.3,0,0,1-27.57-4.69c-9.71-2.82-14.41-9.71-12.53-20.05,2.2-8.14,5-14.72,7.83-21.61,3.14-9.71,7.83-19.11,11.59-29.44-5.63,0-9.39.31-13.78,0-9.4,0-15-5-16.29-14.1-.93-16.6-.31-25.37,22.24-24.74A158.37,158.37,0,0,0,107,123.27c3.45,0,5.64-.94,6.89-5.32,5-15,10.34-28.82,15.35-43.54,11.28-23.8-7.83-18.79-21.92-17.85C96.38,56.87,85.42,58.44,74.46,59.69Z"/></svg>