<svg xmlns="http://www.w3.org/2000/svg" viewBox="0 0 240.21 241.17"><defs><style>.a{fill:#039;stroke:#000;stroke-miterlimit:10;}</style></defs><path class="a" d="M2.47,93.59a4.16,4.16,0,0,1,5.77-1.13,2.5,2.5,0,0,1,.9,2.16c.07,1,0,1.94.07,2.86a15.44,15.44,0,0,0,.21,2.26,3.18,3.18,0,0,1-3.23,4.05c-2.91,0-4.49-1.56-4.8-4.42,0-.27,0-.61,0-1A9.36,9.36,0,0,1,2.47,93.59Z"/><path class="a" d="M41.79,114.94A22.15,22.15,0,0,1,42,126.81c-.9,3.72-3.29,5.83-7,6.85a20.73,20.73,0,0,1-8.9.38c-2.1,4-3.59,3.18-7.06,3.18a3.94,3.94,0,0,1-3.93-3.67,36.83,36.83,0,0,1-.6-7c-.21-9.85-.81-19.74-.43-29.63.22-1.89.65-3.46,2.7-3.6,2.26-.11,4.63-.16,7-.22s2.16,2.59,2.16,4.1c.05,3.6.09,7.2.16,10.85,0,.38.11.65.11,1.13C31.54,107.62,40,108.81,41.79,114.94ZM30.1,124.7c1.46-.7,1.94-1.79,1.68-3.59a2.68,2.68,0,0,0-2.55-2.57,25.52,25.52,0,0,0-3,0v6.52a6,6,0,0,0,3.94-.39Z"/><path class="a" d="M65.48,130.55c-1.3.9-2.43,2.1-3.73,3a10.17,10.17,0,0,1-8.84,1.35,7.1,7.1,0,0,1-5.35-5.4,20.11,20.11,0,0,1,1.8-16,15.13,15.13,0,0,1,7.38-6.36,11.17,11.17,0,0,1,5-.9c1.8.21,3.59.32,5.39.37a2.94,2.94,0,0,0,1.51-.43,9,9,0,0,1,7.2-.9,2.5,2.5,0,0,1,2.26,2.65c.06,1.67,0,3.18.06,4.85.05,3.24.05,6.64.16,9.89s.11,6.37.11,9.5v.43c-.27,3.07-1.3,4.05-4.5,4.15a31,31,0,0,1-3.34,0,4.78,4.78,0,0,1-1.8-.32c-1.3-.43-1.8-.9-1.73-2.27s.27-2.91.38-4.26a4.51,4.51,0,0,0,0-.9A15.23,15.23,0,0,0,65.48,130.55ZM61,123.48a6.56,6.56,0,0,0,4.26-2.32c.16-.11.22-.48.22-.7,0-12-8.26-2.59-7.07,1.3a2.12,2.12,0,0,0,2.44,1.74l.11,0Z"/><path class="a" d="M113,108.43c4.5,4.42,4.64,18.94,3.3,24.6-.71,2.75-3.3,3.67-6.42,3.6s-5.67-1.19-5.13-4.32c.16-2.05.43-6,.43-9.28,0-9.38-8-6.8-9.48.9-.34,2.11-.49,4.26-.77,6.48-.16.75-.16,1.56-.38,2.26a4.19,4.19,0,0,1-4.31,3.6c-3.07,0-6.42-.33-6.8-3.45-.42-7.88.66-16.35,1.24-23.47a8.13,8.13,0,0,1,.82-2.81c1.29-2.8,8-2.48,9-.32a11.43,11.43,0,0,1,.82,2.1,19.84,19.84,0,0,1,.42,3.08C100.87,107.75,107.34,103,113,108.43Z"/><path class="a" d="M140.79,130.55c-1.3.9-2.43,2.1-3.72,3a10.19,10.19,0,0,1-8.85,1.35,7.09,7.09,0,0,1-5.34-5.4,20.11,20.11,0,0,1,1.8-16,15.16,15.16,0,0,1,7.39-6.36,11.11,11.11,0,0,1,5-.9c1.8.21,3.6.32,5.39.37a3,3,0,0,0,1.52-.43,9,9,0,0,1,7.19-.9,2.5,2.5,0,0,1,2.26,2.65c.06,1.67,0,3.18.06,4.85.05,3.24.05,6.64.16,9.89s.11,6.37.11,9.5v.43c-.27,3.07-1.3,4.05-4.5,4.15a31,31,0,0,1-3.34,0,4.78,4.78,0,0,1-1.8-.32c-1.3-.43-1.8-.9-1.73-2.27s.27-2.91.38-4.26a4.51,4.51,0,0,0,0-.9A15.33,15.33,0,0,0,140.79,130.55Zm-4.5-7.07a6.54,6.54,0,0,0,4.26-2.32c.17-.11.22-.48.22-.7,0-12-8.25-2.59-7.07,1.3a2.13,2.13,0,0,0,2.44,1.74l.12,0Z"/><path class="a" d="M188.32,108.43c4.49,4.42,4.64,18.94,3.29,24.6-.7,2.75-3.29,3.67-6.42,3.6s-5.67-1.19-5.13-4.32c.17-2.05.44-6,.44-9.28,0-9.38-8-6.8-9.5.9-.32,2.11-.49,4.26-.76,6.48-.16.75-.16,1.56-.37,2.26a4.2,4.2,0,0,1-4.32,3.6c-3.06,0-6.42-.33-6.8-3.45-.42-7.88.66-16.35,1.24-23.47a8.35,8.35,0,0,1,.82-2.81c1.29-2.8,8-2.48,9-.32a11.39,11.39,0,0,1,.81,2.1,18.73,18.73,0,0,1,.44,3.08C176.22,107.75,182.65,103,188.32,108.43Z"/><path class="a" d="M216.1,130.55c-1.29.9-2.43,2.1-3.72,3a10.19,10.19,0,0,1-8.85,1.35,7.09,7.09,0,0,1-5.34-5.4,20.07,20.07,0,0,1,1.8-16,15.11,15.11,0,0,1,7.39-6.36,11.11,11.11,0,0,1,5-.9c1.8.21,3.6.32,5.4.37a3,3,0,0,0,1.51-.43,9,9,0,0,1,7.19-.9,2.51,2.51,0,0,1,2.27,2.65c0,1.67,0,3.18,0,4.85.06,3.24.06,6.64.16,9.89s.11,6.37.11,9.5v.43c-.27,3.07-1.29,4.05-4.49,4.15a31.2,31.2,0,0,1-3.35,0,4.85,4.85,0,0,1-1.8-.32c-1.29-.43-1.8-.9-1.72-2.27s.27-2.91.37-4.26a4.51,4.51,0,0,0,0-.9A16.89,16.89,0,0,0,216.1,130.55Zm-4.49-7.07a6.58,6.58,0,0,0,4.26-2.32c.16-.11.21-.48.21-.7,0-12-8.25-2.59-7.06,1.3a2.12,2.12,0,0,0,2.44,1.74l.11,0Z"/><path class="a" d="M237.74,101.31a4.18,4.18,0,0,1-5.78,1.13,2.54,2.54,0,0,1-.9-2.16c-.05-1,0-1.94-.05-2.86a15.6,15.6,0,0,0-.23-2.26A3.2,3.2,0,0,1,233,91.22a3.41,3.41,0,0,1,1-.11c2.92,0,4.5,1.57,4.8,4.43,0,.27.06.64.06,1A9.35,9.35,0,0,1,237.74,101.31Z"/></svg>