<svg xmlns="http://www.w3.org/2000/svg" viewBox="0 0 240.21 241.17"><defs><style>.a{fill:#fff;}.a,.c{stroke:#000;stroke-linecap:round;stroke-linejoin:round;stroke-width:2px;}.b{fill:#f33;}.c{fill:none;}</style></defs><path class="a" d="M65.46,64.67,76.7,61.16s82.16,19.66,82.86,21.07.71,97.83,0,98.77-6.32,3.06-8.42,3.06c-.83,0-8.48-2.11-23.88-7-23.88-7.67-59-19.51-59-20.37C68.27,155.27,64.06,65.37,65.46,64.67Z"/><path class="b" d="M87.76,99.08,102,103.55l9.83-4.47L97.06,94.87S86.19,98.38,87.76,99.08Z"/><line class="c" x1="150.43" y1="85.04" x2="151.14" y2="184.06"/><path class="a" d="M150.43,85c1.89-.7,8.13-3.27,8.13-3.27"/><line class="c" x1="65.46" y1="64.67" x2="150.79" y2="84.9"/><path class="c" d="M85.83,99.08a106.29,106.29,0,0,1,11.23-4.21c.7,0,16.15,4.21,16.86,4.92s1.4,49.15.7,49.86-4.5,0-4.5,0-16.86-5.15-17.05-6.09,1.18-22,1.18-22S84.42,99.79,85.83,99.08Z"/><path class="c" d="M85.83,99.08,102,104a19,19,0,0,1,11.23-4.21"/><polyline class="c" points="101.98 104 111.52 125.6 110.68 149.75"/><line class="c" x1="94.25" y1="121.56" x2="111.51" y2="125.6"/><path d="M118.11,82a1.11,1.11,0,0,1-.23.52c-.16.27-.27.43-.3.5a8.48,8.48,0,0,0-.75,2.81l-.31,5.42A4.16,4.16,0,0,1,116,93c-.39.7-.86,1.06-1.41,1-.8,0-1.55-.65-2.28-1.84a18.36,18.36,0,0,1-1.55-3.62c-.29-1-.59-2-.89-3a38.61,38.61,0,0,0-.65,4.27,6.22,6.22,0,0,0,.21,2.81c.21.27.33.43.32.54a.77.77,0,0,1-.46.62,1.61,1.61,0,0,1-.88.23c-.41,0-.73-.38-1-1.16a4.76,4.76,0,0,1-.24-1.59l.08-1c0-.42,0-.74.07-1a17.89,17.89,0,0,1,.31-2.3,16,16,0,0,0,.32-2.29l.11-2.3v-.11a.2.2,0,0,1,0-.11c0-.26.21-.45.61-.6a2.48,2.48,0,0,1,1-.17,1.86,1.86,0,0,1,1.55.7,2.68,2.68,0,0,1,.2.88c0,.3.06.61.09.93a31.18,31.18,0,0,0,1.18,4.36c.78,2.35,1.39,3.54,1.82,3.58.16,0,.25-.17.26-.52a4,4,0,0,0,0-.49,4.86,4.86,0,0,1,0-.54l.45-5.11a8,8,0,0,1,.56-2.25c.42-1,.94-1.53,1.58-1.49a1.83,1.83,0,0,1,.84.37Z"/><path d="M109,152.73c0,.46-.28.7-.85.7h-.65a7.76,7.76,0,0,0-1.79.28c-.95.26-1.55.4-1.78.44-.08.61-.17,1.22-.25,1.82a16.28,16.28,0,0,0-.14,1.84c0,.4.1.6.28.59h.12c1-.09,1.61-.13,2-.13a2,2,0,0,1,1.8.82c0,.53-.19.8-.55.8a1.55,1.55,0,0,1-.31-.06,1.7,1.7,0,0,0-.31-.06h-1.3a8.14,8.14,0,0,0-1.48.12q-.28.08-.33.18a1.86,1.86,0,0,0-.09.47v.7a9.2,9.2,0,0,0,.14,2.4,1.29,1.29,0,0,1,.26.54.7.7,0,0,1-.28.52.89.89,0,0,1-.54.26.82.82,0,0,1-.81-.4,6.7,6.7,0,0,1-.37-2.81c0-.75.07-1.87.2-3.37s.2-2.62.2-3.37c0-.55,0-.83-.12-.83h-.23c-.14,0-.27-.09-.39-.3a1,1,0,0,1-.19-.56.52.52,0,0,1,.35-.46c.19-.07.39-.13.58-.18a1.28,1.28,0,0,1-.05-.27q0-.63.6-.63a2.07,2.07,0,0,1,1,.58,25,25,0,0,1,3.86-.51,2.38,2.38,0,0,1,.91.18A.78.78,0,0,1,109,152.73Z"/><path d="M118.13,154.89c0,.48-.29.71-.86.71h-.67a7.59,7.59,0,0,0-1.83.29c-1,.27-1.57.42-1.82.46-.07.64-.16,1.29-.24,1.92a16,16,0,0,0-.15,1.95c0,.42.1.62.29.61H113c1-.09,1.64-.14,2-.14a2,2,0,0,1,1.84.87c0,.56-.19.83-.56.83a1.06,1.06,0,0,1-.31,0,1.23,1.23,0,0,0-.32-.07h-1.3a7.53,7.53,0,0,0-1.5.12c-.2.06-.31.12-.35.19a1.69,1.69,0,0,0-.08.5v.77a10.25,10.25,0,0,0,.14,2.53,1.5,1.5,0,0,1,.27.57.75.75,0,0,1-.3.55.88.88,0,0,1-.55.27.82.82,0,0,1-.82-.42,7.42,7.42,0,0,1-.38-2.92c0-.79.07-2,.21-3.55s.21-2.76.21-3.56c0-.58,0-.87-.13-.87h-.23c-.15,0-.28-.1-.41-.31a1.28,1.28,0,0,1-.19-.6.5.5,0,0,1,.36-.47,3.84,3.84,0,0,1,.6-.2,1.4,1.4,0,0,1-.06-.28c0-.47.2-.7.61-.7a2.07,2.07,0,0,1,1.06.61,24.87,24.87,0,0,1,3.94-.53,2,2,0,0,1,.93.2A.8.8,0,0,1,118.13,154.89Z"/><path d="M105.94,85.74a7.21,7.21,0,0,1-1.62,4.42,5.14,5.14,0,0,1-4.43,1.9,5.66,5.66,0,0,1-1.66-.35,4.63,4.63,0,0,1-2.76-2.16,6.46,6.46,0,0,1-.59-3.38,8.24,8.24,0,0,1,1.63-4.73A5,5,0,0,1,101,79.2a4.49,4.49,0,0,1,3.82,2.28A7.25,7.25,0,0,1,105.94,85.74Zm-1.9-.41c.11-2.61-.71-4.22-2.47-4.81a2.77,2.77,0,0,0-.64-.11,3.51,3.51,0,0,0-2.27.85c-1.23,1-1.89,2.78-2,5.39a4.91,4.91,0,0,0,.14,1,4.19,4.19,0,0,0,.92,2.11,3.15,3.15,0,0,0,2.23.89,3.31,3.31,0,0,0,3.17-1.73,7.6,7.6,0,0,0,1-3.58Z"/><path d="M99.22,155.31a7,7,0,0,1-1.62,4.41,5.13,5.13,0,0,1-4.42,1.89,5.66,5.66,0,0,1-1.67-.35,4.61,4.61,0,0,1-2.76-2.17,6.41,6.41,0,0,1-.59-3.37A8.24,8.24,0,0,1,89.79,151a5.09,5.09,0,0,1,4.54-2.25,4.56,4.56,0,0,1,3.85,2.31A7.33,7.33,0,0,1,99.22,155.31Zm-1.91-.4q.18-3.93-2.46-4.82a2.25,2.25,0,0,0-.63-.11,3.46,3.46,0,0,0-2.28.85q-1.84,1.46-2,5.38a4.86,4.86,0,0,0,.11,1,4.21,4.21,0,0,0,.93,2.11,3.15,3.15,0,0,0,2.24.86,3.35,3.35,0,0,0,3.16-1.73,7.47,7.47,0,0,0,1-3.54Z"/></svg>