<svg xmlns="http://www.w3.org/2000/svg" viewBox="0 0 240.21 241.17"><defs><style>.a{fill:#fff;}.a,.c{stroke:#000;stroke-linecap:round;stroke-linejoin:round;stroke-width:2px;}.b{fill:#f33;}.c{fill:none;}</style></defs><path class="a" d="M52.54,45.38l15-4.69S177.27,67,178.21,68.83s.94,130.64,0,131.91-8.44,4.08-11.25,4.08c-1.11,0-11.32-2.82-31.89-9.38-31.89-10.23-78.78-26.06-78.78-27.2C56.29,166.36,50.66,46.32,52.54,45.38Z"/><path class="b" d="M82.33,91.34l19,6,13.13-6-19.7-5.63S80.23,90.4,82.33,91.34Z"/><line class="c" x1="166.02" y1="72.58" x2="166.96" y2="204.82"/><path class="a" d="M166,72.58c2.51-.94,10.85-4.36,10.85-4.36"/><line class="c" x1="52.54" y1="45.38" x2="166.49" y2="72.4"/><path class="c" d="M79.74,91.34c2.37-1.19,14.07-5.63,15-5.63s21.57,5.63,22.51,6.56,1.88,65.65.94,66.59-6,0-6,0S89.67,152,89.41,150.73,91,121.35,91,121.35,77.86,92.27,79.74,91.34Z"/><path class="c" d="M79.74,91.34l21.57,6.56s6.51-5.63,15-5.63"/><polyline class="c" points="101.31 97.9 114.04 126.75 112.93 158.99"/><line class="c" x1="90.99" y1="121.35" x2="114.04" y2="126.75"/><path d="M122.85,68.58a1.48,1.48,0,0,1-.3.69c-.22.36-.37.58-.4.66a11.47,11.47,0,0,0-1,3.76l-.41,7.24a5.72,5.72,0,0,1-.68,2.24c-.53.94-1.15,1.41-1.88,1.39-1.07,0-2.08-.87-3.06-2.46a25.43,25.43,0,0,1-2.06-4.83c-.38-1.33-.79-2.66-1.19-4A50.44,50.44,0,0,0,111,79c-.1,2.15,0,3.4.28,3.76s.43.57.42.72a1,1,0,0,1-.62.82,2.1,2.1,0,0,1-1.17.31c-.55,0-1-.51-1.27-1.54a6.44,6.44,0,0,1-.32-2.13l.11-1.35.09-1.27a22.88,22.88,0,0,1,.42-3.07,22.59,22.59,0,0,0,.42-3l.15-3.08V69a.38.38,0,0,1,0-.15c0-.34.29-.6.82-.8a3.16,3.16,0,0,1,1.29-.22,2.52,2.52,0,0,1,2.08.94A3.56,3.56,0,0,1,114,69.9c0,.4.08.81.12,1.24A40.48,40.48,0,0,0,115.66,77c1,3.12,1.85,4.72,2.43,4.77.2,0,.32-.22.34-.69a3.64,3.64,0,0,0,0-.66,4.21,4.21,0,0,1,0-.71l.6-6.83a11.46,11.46,0,0,1,.74-3c.57-1.37,1.27-2,2.12-2a2.43,2.43,0,0,1,1.12.5Z"/><path d="M110.69,163c0,.61-.38.94-1.14.94h-.86a9.76,9.76,0,0,0-2.4.37c-1.27.34-2.06.53-2.37.58q-.18,1.23-.33,2.43a18.54,18.54,0,0,0-.19,2.47c0,.53.12.8.37.78h.16c1.28-.12,2.15-.17,2.64-.17a2.64,2.64,0,0,1,2.4,1.1c0,.7-.24,1.06-.73,1.06a1.86,1.86,0,0,1-.41-.08,1.54,1.54,0,0,0-.42-.07h-1.73a9.39,9.39,0,0,0-2,.15c-.25.07-.39.15-.44.24a1.9,1.9,0,0,0-.11.63v.94a12.2,12.2,0,0,0,.18,3.19,1.9,1.9,0,0,1,.35.73,1,1,0,0,1-.38.7,1.24,1.24,0,0,1-.73.34,1.08,1.08,0,0,1-1.07-.53A9,9,0,0,1,101,175q0-1.5.27-4.5t.27-4.5c0-.74-.05-1.11-.17-1.11h-.3c-.18,0-.36-.13-.52-.4a1.43,1.43,0,0,1-.25-.75.65.65,0,0,1,.46-.61,7.83,7.83,0,0,1,.78-.25,1,1,0,0,1-.06-.35c0-.58.26-.86.79-.86a2.8,2.8,0,0,1,1.39.78,34.4,34.4,0,0,1,5.15-.67,2.83,2.83,0,0,1,1.22.24A1.06,1.06,0,0,1,110.69,163Z"/><path d="M122.88,165.87c0,.63-.39.94-1.15.94h-.9a9.56,9.56,0,0,0-2.43.39c-1.3.36-2.1.56-2.43.61l-.33,2.57a20.54,20.54,0,0,0-.2,2.6q0,.84.39.81H116c1.29-.12,2.19-.19,2.68-.19a2.69,2.69,0,0,1,2.45,1.18c0,.74-.25,1.1-.75,1.1a2,2,0,0,1-.42-.07,1.5,1.5,0,0,0-.42-.09h-1.73a10.36,10.36,0,0,0-2,.16c-.26.08-.41.16-.46.26a2.12,2.12,0,0,0-.11.66v1a13.66,13.66,0,0,0,.18,3.38,2,2,0,0,1,.36.77,1,1,0,0,1-.39.73,1.11,1.11,0,0,1-.74.36,1.07,1.07,0,0,1-1.09-.56,9.93,9.93,0,0,1-.51-3.9q0-1.59.27-4.74c.18-2.1.28-3.69.28-4.75,0-.78,0-1.16-.16-1.16h-.31c-.2,0-.38-.14-.55-.42a1.64,1.64,0,0,1-.25-.8.69.69,0,0,1,.48-.63,5.66,5.66,0,0,1,.79-.27,1.51,1.51,0,0,1-.07-.37c0-.62.27-.93.82-.93a2.79,2.79,0,0,1,1.41.81,34.5,34.5,0,0,1,5.25-.71,2.84,2.84,0,0,1,1.25.27A1.08,1.08,0,0,1,122.88,165.87Z"/><path d="M106.6,73.52a9.58,9.58,0,0,1-2.17,5.9A6.88,6.88,0,0,1,98.52,82a7.66,7.66,0,0,1-2.21-.47,6.22,6.22,0,0,1-3.7-2.89,8.65,8.65,0,0,1-.78-4.51A11.15,11.15,0,0,1,94,67.77a6.78,6.78,0,0,1,6.06-3,6,6,0,0,1,5.1,3A9.71,9.71,0,0,1,106.6,73.52ZM104.06,73q.22-5.23-3.3-6.43a3.43,3.43,0,0,0-.85-.14,4.72,4.72,0,0,0-3,1.13c-1.64,1.3-2.51,3.72-2.7,7.21a6.19,6.19,0,0,0,.19,1.35,5.45,5.45,0,0,0,1.23,2.81,4.15,4.15,0,0,0,3,1.18,4.41,4.41,0,0,0,4.24-2.3A10.15,10.15,0,0,0,104.06,73Z"/><path d="M97.62,166.42a9.56,9.56,0,0,1-2.15,5.9,6.9,6.9,0,0,1-5.91,2.52,7.79,7.79,0,0,1-2.23-.47,6.24,6.24,0,0,1-3.69-2.89,8.76,8.76,0,0,1-.79-4.51A11.11,11.11,0,0,1,85,160.65a6.8,6.8,0,0,1,6.07-3,6,6,0,0,1,5.13,3.09A9.68,9.68,0,0,1,97.62,166.42Zm-2.54-.53c.16-3.51-.94-5.65-3.29-6.44a3,3,0,0,0-.84-.14,4.66,4.66,0,0,0-3,1.13c-1.64,1.29-2.54,3.69-2.69,7.18a5.06,5.06,0,0,0,.15,1.34,5.49,5.49,0,0,0,1.23,2.82,4.27,4.27,0,0,0,3,1.15,4.48,4.48,0,0,0,4.22-2.32,10,10,0,0,0,1.27-4.72Z"/></svg>