<svg xmlns="http://www.w3.org/2000/svg" xmlns:xlink="http://www.w3.org/1999/xlink" viewBox="0 0 1920 1080"><defs><style>.a{fill:#701c0d;}.b{fill:#bedef4;}.c{fill:#843d19;}.d{fill:#d16e3d;}.e{fill:#ffcc73;}.f{fill:#f33;}.g{fill:#cc2121;}.h{fill:#ffe4bd;}.i{fill:#f66;}.j{fill:#e03b3b;}.k{fill:#ffdaa9;}.l{fill:#febe3a;}.m{fill:#bc801e;}.n{fill:#e0991b;}.o{fill:#a74830;}.p{fill:#7f3126;}.q{fill:#fff;}.r,.s{fill:none;stroke:#f66;stroke-linecap:round;stroke-linejoin:round;}.r{stroke-width:9px;}.s{stroke-width:4px;}</style></defs><polygon class="a" points="325 811 -143 1066 -143 -362 325 -30 325 811"/><polygon class="b" points="297 -14 297 786 -87 971 -87 -233 297 -14"/><polygon class="c" points="297 79 -140 -112 -140 -89.68 297 85 297 79"/><polygon class="c" points="297 188 297 197 -121 95 -120 80 297 188"/><polygon class="c" points="297 292 297 301 -96.35 270.22 -96 257 297 292"/><polygon class="c" points="297 411 297 419 -90.35 420.32 -93 410 297 411"/><polygon class="c" points="137 889 123 897 123 -166 137 -183 137 889"/><polygon class="c" points="297 533 297 542 -99.01 577 -99.01 565.55 297 533"/><polygon class="c" points="297 671 297 678 -114 791 -112 769 297 671"/><polygon class="c" points="315 792 305 791 307 -24 313 -24 315 792"/><polygon class="c" points="-99 1019 315.96 791 305 791 -108 1018 -99 1019"/><polygon class="d" points="-81.55 -276 125.58 -150.99 130 892 -78.26 1007.84 -76.52 996 123.48 888.81 121.45 -128.01 121.41 -143.99 -89 -269.99 -89 -276 -81.55 -276"/><path class="e" d="M-419,1217,484,725h915l1149,559-61,277s-1771,38-1851.5,16S-427,1353-419,1347-419,1217-419,1217Z"/><path class="f" d="M246,1004s26,12,138,15,177-15,180-23,23-23,20-40-2-31-17-43-144-32-182-21-67,12-97,28-48,24-46,30.5S237,1003,246,1004Z"/><path class="g" d="M334,953.5c71-1,208-12.5,213-7.5s22,40,17,50-71,28.47-174,23-140-6-144-15-2.11-27.37-4-53.5C241,937,300,954,334,953.5Z"/><path class="g" d="M558,934c6-8,9-21,9-21s12.57,5.49,17.29,31.74S564,996,564,996s-6-40-17-50Z"/><path class="f" d="M1638,993s-14.61,11.51-126.61,14.51-177-15-180-23-23-23-20-40,2-31,17-43c8.59-6.87,49.5-12.93,92.94-16.75,17.21-1.52,32.52,0,48.67-.76,14.27-.64,34.29-.1,45,0,39.54.37,60,8,74,12,22.76,6.5,45.64,20.21,57,31,5,4.71,8,10,7.41,12C1651.39,945.51,1647,992,1638,993Z"/><path class="g" d="M1492,947c-71-1-111-8-143.61-12.49-7-1-22,40-17,50s71,28.47,174,23,140-6,144-15S1664.64,958,1652,935c-4.41-8-.84.11-5,0C1623.42,934.36,1521.54,947.43,1492,947Z"/><path class="g" d="M1336,928c-11.39-9.51-7.61-26.49-7.61-26.49s-12.57,5.48-17.28,31.74,20.28,51.26,20.28,51.26,6-40,17-50Z"/><rect class="h" x="464" y="-184" width="930" height="909"/><polygon class="i" points="577 892 1326.32 892 1326.32 867.65 1230 802 637 799 577 863.65 577 892"/><polygon class="i" points="597 1031 632.98 1031 676 922 676 876 597 876 597 1031"/><polygon class="i" points="1225 870 1225 926.32 1267.65 1031 1297.65 1031 1297.65 886.98 1225 870"/><rect class="j" x="574" y="867" width="752" height="25"/><rect class="j" x="594" y="881" width="39" height="150"/><rect class="j" x="1265" y="876" width="33" height="155"/><polygon class="k" points="1390 -461 1390 729 2333 1186 2333 -523 1390 -461"/><polygon class="k" points="466 734 325 811 325 -449 472 -449 466 734"/><rect class="l" x="451" y="589" width="965" height="152"/><polygon class="m" points="1416 589 451 589 472.84 580.66 1390 581 1416 589"/><rect class="n" x="592" y="589" width="5" height="152"/><rect class="o" x="1032" y="424" width="292" height="20"/><rect class="n" x="877" y="589" width="5" height="152"/><rect class="n" x="734" y="589" width="6" height="152"/><rect class="n" x="1152" y="589" width="5" height="152"/><rect class="n" x="1011" y="589" width="5" height="152"/><rect class="n" x="1283" y="589" width="5" height="152"/><polygon class="p" points="1046 420 1032 424 1324 424 1312 420 1046 420"/><image width="1494" height="1394" transform="translate(480 409) scale(0.13)" xlink:href="../animation/animatic/bonsai.png"/><ellipse class="g" cx="896.19" cy="540.96" rx="52.19" ry="12.98"/><image width="806" height="716" transform="matrix(0.12, 0.03, -0.03, 0.12, 858.26, 467)" xlink:href="../animation/animatic/bananas.png"/><path class="f" d="M910.23,587.32c18-5.83,29.66-17.85,35-28.61S948.37,541,948.37,541s-17,9.64-52.18,10S844,539.28,844,539.28a79.16,79.16,0,0,0,2.85,18.37c2.3,8,19.4,28.61,36.89,29.14S906.32,588.17,910.23,587.32Z"/><rect class="g" x="700" y="170" width="203" height="203"/><rect class="q" x="710" y="181.98" width="183" height="178.98"/><path class="r" d="M730.65,200.57s30.4-4.23,33.09,0,.9,19.85,1,30.21c0,3.78,0,6.35,0,6.35"/><line class="r" x1="731.61" y1="230.97" x2="764.71" y2="230.78"/><path class="r" d="M780.87,217.26a173.34,173.34,0,0,1,22.51-1.4c12.89,0,18.86,1.65,18.86,1.65"/><polyline class="r" points="839.94 194.42 840.28 210.19 840.9 239.08"/><path class="r" d="M866.88,223.09a56.77,56.77,0,0,0-11-7.89c-5.24-2.83-11.9-4.53-13.66-4.62"/><path class="s" d="M855.06,194.47s5.58,4.26,8,9.32"/><path class="s" d="M862.59,191a19,19,0,0,1,6.93,7.65"/><path class="r" d="M752.38,258.13s19.21,15.14,20.81,40.28,1.92,44.65-3.53,46.3-19.12-1-19.12-1"/><path class="r" d="M750.54,315.34s19.31-13.17,22-22.72"/><path class="r" d="M747.2,284.91s25.67-9.89,32.07-24.62"/><line class="r" x1="792.39" y1="271.75" x2="850" y2="271.75"/><line class="r" x1="807.25" y1="259.11" x2="807.25" y2="283.02"/><line class="r" x1="832.11" y1="257.41" x2="832.11" y2="283.02"/><path class="r" d="M795,348.31s-1.37-49.12,1-50.25,50.71-1.35,52.17.64S850,347.37,850,349.62"/><line class="r" x1="795.72" y1="339.72" x2="848.09" y2="339.76"/><line class="r" x1="795.72" y1="317.84" x2="848.08" y2="317.15"/><line class="r" x1="821.11" y1="300.23" x2="821.11" y2="336.88"/><image width="910" height="607" transform="translate(600 140) scale(0.39)" xlink:href="lesson1_bg1.png"/></svg>