<svg xmlns="http://www.w3.org/2000/svg" viewBox="0 0 440.77 1424.44"><defs><style>.a{fill:#fff;stroke:#039;stroke-linecap:round;stroke-linejoin:round;stroke-width:22px;}.b{fill:#bedef4;}</style></defs><path class="a" d="M11.68,179c-4-33.77,10-48,25.34-54l15.33-6,4,28s-8.67-71.33,7.33-92.67,34.67-33.33,58.67-36,46.81,15,46.81,15A184.23,184.23,0,0,0,150.47,71c-7.35,20.72,5.21,70.64,5.21,70.64S141,90.37,153.5,61.61C169.16,33.36,169.68,33,193.68,19s65.72-8.16,83.19,5.59S297.68,58.37,299,69s1.33,14.67-7.34,34.67c-7.38,12.09-13.33,25.33-10,36s-4-42,30-39.34,39.34,40,39.34,69.34-24.67,92-44,119.33-20.42,58.29-21.42,75.49c-3,51.59-3.75,147.34,6.75,195.84,14,64.67,119.33,686,126,720.67S441,1368.68,417,1389s-293.34,62.66-310.67-54.67-15.23-310.53-20-472-16-532-14.67-546.66S15.68,213,11.68,179Z"/><path class="b" d="M243.46,22.59S193,33,180.57,58.82s-14.22,84.44-14.22,84.44-11.57-48-4.89-70S175,42.37,181.91,36.82,216.79,12.82,243.46,22.59Z"/><path class="b" d="M154.35,37c-10.22-6.67-29.78-12-48.8-4C91,37.94,78.06,47.71,71,60.59s-10.45,72.89-3.34,85.78c.67-11.78-.86-60.52,22.23-87.55S154.67,38.51,154.35,37Z"/><path class="b" d="M43,134.82s-9.34,9.33-11.34,15.77-5.72,28.07,8.89,53.3c16.89,29.15,61.3,96.7,62.65,112.26S139,1276,151.68,1310.37s46.34,69.68,105,78.67S389,1389,389,1389s-47.67,13.66-102.67,13.66-90-7.66-90-7.66-49.69-6.48-70-39c-15.67-23-16-81.67-17.67-117.34-8-97.66-14-471.31-14-471.31s-4.5-87.77-4.33-133C90.59,571.71,83,491,83,421c0-66.45,1.5-99.35-1.39-112.82C68.13,271,27,213.26,23.68,184.59c-4.55-16.3,0-30,1.34-34.66C28.35,137.93,43,134.82,43,134.82Z"/><path class="b" d="M326.79,119s-16-7.33-20.44,1.55-12,23.12-12.44,21.78.88-24.22,8.88-29.55S322.35,109.71,326.79,119Z"/><path class="b" d="M321,238.82S306.35,273,296.13,285.93s-20.45,37.77-20,64.89-2.25,135.11-2.25,135.11-10.2-111.11-4.42-144,9.78-42.67,27.11-66.22,33.34-65,36.89-71.82S321,238.82,321,238.82Z"/></svg>